<?xml version="1.0" standalone="no"?>
<!DOCTYPE svg PUBLIC "-//W3C//DTD SVG 20010904//EN"
 "http://www.w3.org/TR/2001/REC-SVG-20010904/DTD/svg10.dtd">
<svg version="1.0" xmlns="http://www.w3.org/2000/svg"
 width="538.000000pt" height="79.000000pt" viewBox="0 0 538.000000 79.000000"
 preserveAspectRatio="xMidYMid meet">

<g transform="translate(0.000000,79.000000) scale(0.100000,-0.100000)"
fill="#000000" stroke="none">
<path d="M1460 638 c-56 -29 -90 -78 -90 -130 0 -77 45 -127 146 -164 79 -28
100 -45 90 -69 -8 -22 -43 -19 -56 5 -9 18 -21 20 -95 20 -97 0 -102 -5 -62
-75 34 -61 94 -89 187 -90 132 0 200 55 200 163 0 51 -3 58 -37 90 -21 20 -72
49 -113 67 -58 24 -76 36 -78 53 -3 17 2 22 18 22 11 0 23 -7 26 -15 5 -12 25
-15 95 -15 l89 0 -6 28 c-20 86 -88 130 -204 131 -49 1 -77 -5 -110 -21z"/>
<path d="M2021 650 c-121 -29 -198 -168 -171 -311 24 -128 113 -202 244 -203
113 0 196 48 237 139 30 64 28 65 -64 65 -75 0 -86 -2 -106 -24 -30 -32 -65
-40 -100 -22 -37 20 -55 64 -48 123 5 51 41 93 78 93 25 0 61 -18 72 -36 6
-10 33 -14 98 -14 89 0 90 0 84 23 -13 43 -55 106 -86 128 -60 43 -155 58
-238 39z"/>
<path d="M2578 650 c-24 -14 -40 -73 -32 -115 8 -47 49 -95 79 -95 72 0 74
155 3 204 -26 18 -27 19 -50 6z"/>
<path d="M3900 651 c-107 -35 -166 -110 -177 -224 -16 -173 86 -291 251 -290
80 0 135 19 179 61 34 32 67 92 67 122 0 18 -6 20 -80 20 -76 0 -83 -2 -104
-27 -33 -38 -89 -38 -122 1 -19 21 -24 39 -24 82 0 48 4 60 29 85 36 36 70 37
109 4 27 -22 39 -25 111 -25 90 0 94 4 65 63 -23 46 -63 86 -109 109 -43 23
-152 33 -195 19z"/>
<path d="M4978 650 c-69 -21 -108 -73 -108 -145 0 -87 24 -110 183 -179 44
-19 58 -30 55 -43 -5 -26 -44 -28 -60 -4 -11 19 -23 21 -95 21 -80 0 -83 -1
-83 -24 0 -36 41 -88 90 -116 65 -35 176 -36 239 0 52 29 81 78 81 135 0 65
-30 102 -115 141 -40 19 -78 34 -83 34 -5 0 -17 9 -27 20 -17 19 -17 22 -3 37
15 14 18 14 34 -6 16 -18 29 -21 101 -21 80 0 83 1 83 24 0 37 -41 89 -90 114
-46 23 -145 29 -202 12z"/>
<path d="M90 395 l0 -255 85 0 85 0 1 113 1 112 36 -112 35 -113 72 0 71 0 36
113 36 112 1 -112 1 -113 80 0 80 0 0 255 0 255 -98 0 -98 0 -54 -151 -54
-151 -55 151 -56 151 -102 0 -103 0 0 -255z"/>
<path d="M866 408 c-49 -134 -91 -249 -94 -256 -3 -10 15 -12 83 -10 l88 3 12
35 12 35 83 0 83 0 12 -35 12 -35 88 -3 c68 -2 86 0 83 10 -3 7 -45 122 -93
256 l-88 242 -97 0 -96 0 -88 -242z m207 -1 c9 -30 17 -57 17 -60 0 -4 -18 -7
-40 -7 -22 0 -40 3 -40 7 0 16 34 113 40 113 3 0 14 -24 23 -53z"/>
<path d="M2752 625 c-41 -35 -59 -100 -39 -147 18 -44 49 -56 83 -33 53 35 69
141 28 186 -23 25 -36 24 -72 -6z"/>
<path d="M2990 590 l0 -60 65 0 65 0 0 -195 0 -195 80 0 80 0 2 193 3 192 68
3 67 3 0 59 0 60 -215 0 -215 0 0 -60z"/>
<path d="M3480 395 l0 -255 80 0 80 0 0 255 0 255 -80 0 -80 0 0 -255z"/>
<path d="M4436 608 c-70 -188 -166 -454 -166 -460 0 -4 38 -8 83 -8 l84 0 16
40 15 40 81 0 80 0 12 -40 12 -40 88 0 88 0 -32 87 c-17 49 -58 162 -92 253
l-60 165 -97 3 -96 3 -16 -43z m130 -190 c9 -29 19 -59 22 -65 3 -9 -9 -13
-41 -13 l-45 0 21 65 c12 36 22 65 23 65 1 0 10 -24 20 -52z"/>
<path d="M2443 488 c-30 -39 -20 -109 19 -145 74 -67 135 -8 94 91 -23 55 -88
86 -113 54z"/>
<path d="M2860 457 c-29 -14 -60 -70 -60 -109 0 -34 32 -68 63 -68 42 0 87 59
87 114 0 26 -35 76 -53 76 -7 0 -23 -6 -37 -13z"/>
<path d="M2645 378 c-55 -30 -118 -109 -135 -169 -8 -26 -5 -34 15 -55 27 -27
61 -30 131 -13 35 9 54 9 84 -1 48 -16 88 -6 102 25 17 37 -15 108 -77 172
-53 55 -79 64 -120 41z"/>
</g>
</svg>
