<svg viewBox="0 0 121.05 54.67" xmlns="http://www.w3.org/2000/svg"><g fill="#343434"><path d="m32.16 16.52a.4.4 0 0 1 -.32.06.44.44 0 0 1 -.35-.52 5.6 5.6 0 0 0 -.81-4.06 5.3 5.3 0 0 0 -3.41-2.32.45.45 0 0 1 -.35-.53.44.44 0 0 1 .51-.35 6.09 6.09 0 0 1 4 2.7 6.44 6.44 0 0 1 1 4.78.44.44 0 0 1 -.27.24z"/><path d="m32 17a.71.71 0 0 1 -.29 0 .85.85 0 0 1 -.56-.38.91.91 0 0 1 -.14-.68 5.11 5.11 0 0 0 -.74-3.77 4.87 4.87 0 0 0 -3.13-2.12.91.91 0 0 1 -.66-1.05.89.89 0 0 1 .75-.72.7.7 0 0 1 .29 0 6.57 6.57 0 0 1 4.25 2.89 6.92 6.92 0 0 1 1 5.13.92.92 0 0 1 -.38.58 1 1 0 0 1 -.39.12z"/><path d="m36.2 17.32a.38.38 0 0 1 -.33.07.44.44 0 0 1 -.34-.52 9.87 9.87 0 0 0 -1.44-7.28 9.37 9.37 0 0 0 -6-4.1.45.45 0 0 1 -.38-.49.43.43 0 0 1 .51-.35 10.23 10.23 0 0 1 6.59 4.48 10.71 10.71 0 0 1 1.58 8 .47.47 0 0 1 -.19.19z"/><path d="m36.07 17.85a.88.88 0 0 1 -.28 0 .86.86 0 0 1 -.57-.38.9.9 0 0 1 -.13-.68 9.39 9.39 0 0 0 -1.37-6.93 9 9 0 0 0 -5.72-3.92.92.92 0 0 1 -.7-1.07.88.88 0 0 1 .7-.72.71.71 0 0 1 .29 0 10.69 10.69 0 0 1 6.88 4.67 11.27 11.27 0 0 1 1.64 8.3.9.9 0 0 1 -.38.57.84.84 0 0 1 -.36.16z"/><path d="m40.24 18.13a.42.42 0 0 1 -.33.07.46.46 0 0 1 -.35-.53 13.91 13.91 0 0 0 -10.72-16.32.45.45 0 0 1 -.34-.53.43.43 0 0 1 .5-.35 14.81 14.81 0 0 1 11.42 17.38.42.42 0 0 1 -.18.28z"/><path d="m40.11 18.66a.88.88 0 0 1 -.28 0 .9.9 0 0 1 -.7-1.06 13.47 13.47 0 0 0 -10.37-15.8.86.86 0 0 1 -.57-.39.9.9 0 0 1 -.13-.68.88.88 0 0 1 .75-.73.72.72 0 0 1 .29 0 15.26 15.26 0 0 1 11.76 17.93.88.88 0 0 1 -.37.58.84.84 0 0 1 -.38.15z"/><path d="m87.81 36v-10.3a.41.41 0 0 1 .14-.31.52.52 0 0 1 .37-.13h2.82a2.91 2.91 0 0 1 3.16 3.3v.14a3.25 3.25 0 0 1 -.88 2.51 3.33 3.33 0 0 1 -2.34.81h-2v4a.38.38 0 0 1 -.18.33.81.81 0 0 1 -.44.12.78.78 0 0 1 -.44-.12.37.37 0 0 1 -.21-.35zm1.25-5h2a1.91 1.91 0 0 0 1.45-.55 2.29 2.29 0 0 0 .52-1.63v-.18a2.31 2.31 0 0 0 -.5-1.64 1.91 1.91 0 0 0 -1.45-.54h-2z"/><path d="m94.79 35.9a.49.49 0 0 1 0-.12l3.05-10.17c.09-.3.34-.44.76-.44s.67.15.76.45l3.06 10.2a.43.43 0 0 0 0 0 .11.11 0 0 1 0 .05.45.45 0 0 1 -.25.36 1 1 0 0 1 -.53.15.41.41 0 0 1 -.44-.28l-.66-2.27h-4l-.54 2.31a.41.41 0 0 1 -.45.29 1 1 0 0 1 -.51-.15.44.44 0 0 1 -.25-.38zm2.21-3.09h3.32l-1.66-5.76z"/><path d="m104.17 36v-10.3a.38.38 0 0 1 .13-.3.45.45 0 0 1 .32-.14h2.73a3.77 3.77 0 0 1 2.4.71 2.82 2.82 0 0 1 .91 2.35 2.68 2.68 0 0 1 -2.23 3l2.21 4.29a.49.49 0 0 1 .06.22.6.6 0 0 1 -.24.45.76.76 0 0 1 -.51.21c-.2 0-.39-.17-.56-.51l-2.25-4.48h-1.72v4.5a.38.38 0 0 1 -.18.33.83.83 0 0 1 -.44.12.78.78 0 0 1 -.44-.12.37.37 0 0 1 -.19-.33zm1.25-5.57h1.93a1.79 1.79 0 0 0 2.05-2 1.78 1.78 0 0 0 -2.05-2h-1.93z"/><path d="m111.83 35.9a.49.49 0 0 1 0-.12l3.06-10.17c.08-.3.34-.44.76-.44s.67.15.76.45l3.06 10.2a.07.07 0 0 0 0 0v.05a.45.45 0 0 1 -.24.36 1 1 0 0 1 -.53.15.41.41 0 0 1 -.45-.28l-.66-2.27h-3.94l-.65 2.31c0 .2-.21.29-.45.29a.91.91 0 0 1 -.5-.15.44.44 0 0 1 -.22-.38zm2.17-3.09h3.33l-1.66-5.76z"/><path d="m43.09 54v-12.14a.66.66 0 0 1 .75-.75c.48 0 .88.33 1.2 1l2.81 5.52 2.82-5.52c.35-.65.75-1 1.2-1a.67.67 0 0 1 .76.75v12.14a.47.47 0 0 1 -.23.41.92.92 0 0 1 -.53.15.89.89 0 0 1 -.52-.15.47.47 0 0 1 -.23-.41v-9.66l-2.7 5.21a.65.65 0 0 1 -.59.42.62.62 0 0 1 -.55-.42l-2.69-5.28v9.73a.46.46 0 0 1 -.22.41 1 1 0 0 1 -1.06 0 .46.46 0 0 1 -.22-.41z"/><path d="m54.65 53.88a.7.7 0 0 1 0-.14l3.67-12.2c.1-.36.4-.54.91-.54s.8.18.91.54l3.67 12.24s0 0 0 .07a.15.15 0 0 1 0 .06.54.54 0 0 1 -.29.43 1.23 1.23 0 0 1 -.64.19.49.49 0 0 1 -.53-.35l-.79-2.72h-4.69l-.78 2.71a.5.5 0 0 1 -.55.36 1.12 1.12 0 0 1 -.6-.19.51.51 0 0 1 -.29-.46zm2.6-3.7h4l-2-6.92z"/><path d="m65.22 52.64a.91.91 0 0 1 .21-.57.56.56 0 0 1 .45-.28.74.74 0 0 1 .42.23c.16.15.34.32.51.51a2.3 2.3 0 0 0 .85.52 3.47 3.47 0 0 0 1.28.23 2.71 2.71 0 0 0 1.83-.58 2.14 2.14 0 0 0 .66-1.7 2.25 2.25 0 0 0 -.61-1.64 4 4 0 0 0 -1.46-1c-.58-.22-1.15-.46-1.73-.71a3.77 3.77 0 0 1 -1.48-1.16 3.18 3.18 0 0 1 -.61-2 3.65 3.65 0 0 1 .36-1.68 2.54 2.54 0 0 1 1-1.08 4.64 4.64 0 0 1 1.24-.53 5.56 5.56 0 0 1 1.38-.16 6.77 6.77 0 0 1 2.12.33c.68.22 1 .52 1 .91a1.05 1.05 0 0 1 -.18.55.53.53 0 0 1 -.46.3 6.67 6.67 0 0 1 -.83-.35 3.92 3.92 0 0 0 -1.66-.35 3 3 0 0 0 -1.76.46 1.63 1.63 0 0 0 -.67 1.45 1.72 1.72 0 0 0 .61 1.37 4.74 4.74 0 0 0 1.47.83c.58.21 1.16.45 1.73.72a3.74 3.74 0 0 1 1.47 1.29 4 4 0 0 1 .6 2.27 3.61 3.61 0 0 1 -1.07 2.85 4.1 4.1 0 0 1 -2.84 1 5.08 5.08 0 0 1 -2.7-.68c-.76-.46-1.13-.91-1.13-1.35z"/><path d="m75.21 50.64v-5.53a3.88 3.88 0 0 1 1.06-3 4 4 0 0 1 2.78-1 4.18 4.18 0 0 1 2.81.91 2.89 2.89 0 0 1 1.06 2.29.9.9 0 0 1 -.18.66.78.78 0 0 1 -.57.18c-.48 0-.73-.18-.75-.53a2 2 0 0 0 -2.33-2.11c-1.59 0-2.38.87-2.38 2.6v5.53c0 1.73.81 2.6 2.43 2.6a3 3 0 0 0 1.17-.2 1.44 1.44 0 0 0 .69-.59 3.41 3.41 0 0 0 .29-.66 5.86 5.86 0 0 0 .13-.73c0-.36.28-.53.75-.53a.78.78 0 0 1 .57.18 1 1 0 0 1 .18.68 3 3 0 0 1 -1.07 2.32 4.11 4.11 0 0 1 -2.81.93 3.94 3.94 0 0 1 -2.77-1 3.89 3.89 0 0 1 -1.06-3z"/><path d="m85.16 50.64v-5.53a3.52 3.52 0 0 1 3.84-4 4 4 0 0 1 2.81 1 3.89 3.89 0 0 1 1.06 3v5.53a3.89 3.89 0 0 1 -1.06 3 4.54 4.54 0 0 1 -5.61 0 3.92 3.92 0 0 1 -1.04-3zm1.5 0c0 1.73.78 2.6 2.34 2.6a2.32 2.32 0 0 0 1.75-.65 2.75 2.75 0 0 0 .61-2v-5.48a2.73 2.73 0 0 0 -.61-2 2.28 2.28 0 0 0 -1.75-.6c-1.56 0-2.34.87-2.34 2.6z"/><path d="m94.42 41.79a.78.78 0 0 1 .15-.47.44.44 0 0 1 .39-.21h7.28a.46.46 0 0 1 .4.21.84.84 0 0 1 .14.47.92.92 0 0 1 -.14.5.45.45 0 0 1 -.4.22h-2.88v11.49a.47.47 0 0 1 -.22.41 1 1 0 0 1 -1.06 0 .47.47 0 0 1 -.22-.41v-11.49h-2.86a.44.44 0 0 1 -.39-.21.85.85 0 0 1 -.19-.51z"/><path d="m102.76 53.88a.43.43 0 0 1 0-.14l3.66-12.2c.11-.36.41-.54.91-.54s.81.18.92.54l3.75 12.24a.15.15 0 0 0 0 .07.15.15 0 0 1 0 .06.53.53 0 0 1 -.3.43 1.19 1.19 0 0 1 -.63.19.5.5 0 0 1 -.54-.35l-.79-2.72h-4.74l-.79 2.71a.5.5 0 0 1 -.54.36 1.18 1.18 0 0 1 -.61-.19.53.53 0 0 1 -.3-.46zm2.6-3.7h4l-2-6.92z"/><path d="m113.34 52.64a1 1 0 0 1 .2-.57.57.57 0 0 1 .46-.28.72.72 0 0 1 .41.23c.17.15.34.32.52.51a2.33 2.33 0 0 0 .84.52 3.49 3.49 0 0 0 1.29.23 2.73 2.73 0 0 0 1.83-.58 2.14 2.14 0 0 0 .66-1.7 2.29 2.29 0 0 0 -.61-1.64 4.08 4.08 0 0 0 -1.47-1c-.57-.22-1.15-.46-1.73-.71a3.74 3.74 0 0 1 -1.47-1.16 3.12 3.12 0 0 1 -.61-2 3.65 3.65 0 0 1 .36-1.68 2.54 2.54 0 0 1 1-1.08 4.51 4.51 0 0 1 1.24-.53 5.56 5.56 0 0 1 1.38-.16 6.81 6.81 0 0 1 2.12.33c.67.22 1 .52 1 .91a1.05 1.05 0 0 1 -.18.55.54.54 0 0 1 -.47.3 7 7 0 0 1 -.82-.35 4 4 0 0 0 -1.66-.35 3.06 3.06 0 0 0 -1.77.46 1.65 1.65 0 0 0 -.67 1.45 1.75 1.75 0 0 0 .61 1.37 4.91 4.91 0 0 0 1.48.83c.58.21 1.15.45 1.72.72a3.61 3.61 0 0 1 1.47 1.29 3.9 3.9 0 0 1 .61 2.27 3.64 3.64 0 0 1 -1.08 2.89 4.13 4.13 0 0 1 -2.85 1 5 5 0 0 1 -2.69-.68c-.76-.5-1.12-.95-1.12-1.39z"/><path d="m43.59 31.9v-6.45a4.57 4.57 0 0 1 1.24-3.53 4.66 4.66 0 0 1 3.25-1.13 4.82 4.82 0 0 1 3.27 1.06 3.33 3.33 0 0 1 1.24 2.66 1.07 1.07 0 0 1 -.21.78.91.91 0 0 1 -.67.21c-.56 0-.85-.21-.88-.62a2.36 2.36 0 0 0 -2.71-2.47c-1.85 0-2.78 1-2.78 3v6.49c0 2 .95 3 2.84 3a3.38 3.38 0 0 0 1.36-.24 1.64 1.64 0 0 0 .8-.68 3.15 3.15 0 0 0 .35-.78 7.11 7.11 0 0 0 .14-.85c0-.41.34-.62.88-.62a.91.91 0 0 1 .67.21 1.15 1.15 0 0 1 .21.79 3.44 3.44 0 0 1 -1.25 2.71 4.8 4.8 0 0 1 -3.28 1.08 4.62 4.62 0 0 1 -3.23-1.13 4.57 4.57 0 0 1 -1.24-3.49z"/><path d="m55.34 35.79v-14.38a.51.51 0 0 1 .26-.41 1.15 1.15 0 0 1 .62-.16 1.09 1.09 0 0 1 .61.16.5.5 0 0 1 .27.46v6.16h5.65v-6.21a.51.51 0 0 1 .25-.41 1.28 1.28 0 0 1 1.24 0 .51.51 0 0 1 .26.46v14.33a.54.54 0 0 1 -.26.47 1.22 1.22 0 0 1 -1.24 0 .54.54 0 0 1 -.26-.47v-6.72h-5.64v6.72a.53.53 0 0 1 -.27.47 1 1 0 0 1 -.61.17 1.07 1.07 0 0 1 -.62-.17.54.54 0 0 1 -.26-.47z"/><path d="m68 35.79v-14.38a.51.51 0 0 1 .26-.46 1.28 1.28 0 0 1 1.24 0 .51.51 0 0 1 .26.46v14.38a.54.54 0 0 1 -.26.47 1.22 1.22 0 0 1 -1.24 0 .54.54 0 0 1 -.26-.47z"/><path d="m73.23 35.79v-14.38a.59.59 0 0 1 .2-.44.72.72 0 0 1 .51-.18h4a4.56 4.56 0 0 1 3.16 1.11 4.54 4.54 0 0 1 1.21 3.51v.19a4.53 4.53 0 0 1 -1.23 3.52 4.67 4.67 0 0 1 -3.28 1.13h-2.8v5.54a.54.54 0 0 1 -.26.47 1.22 1.22 0 0 1 -1.24 0 .54.54 0 0 1 -.27-.47zm1.76-7h2.81a2.66 2.66 0 0 0 2-.76 3.22 3.22 0 0 0 .72-2.28v-.26a3.22 3.22 0 0 0 -.72-2.28 2.7 2.7 0 0 0 -2-.76h-2.8z"/></g><path d="m25 27.19c.77-2.73 2.73-4.66 4.75-5a11.16 11.16 0 0 0 -7-12.55 10.76 10.76 0 0 0 -13.89 6.73l-8.21 23.33a11.18 11.18 0 0 0 6.51 14.22 10.76 10.76 0 0 0 13.84-6.68l.17-.49a7.55 7.55 0 0 0 -.65-.61 6.62 6.62 0 0 0 -1.35-.53 5 5 0 0 0 -1.12-.24 16.09 16.09 0 0 0 -2.66.59 6.54 6.54 0 0 1 -3.57.39 2.81 2.81 0 0 1 -1.34-.9 4.7 4.7 0 0 1 -.83-4.25 8.51 8.51 0 0 1 2.65-4.28 4 4 0 0 1 .41-.31 1.54 1.54 0 0 0 .29-.23 9.06 9.06 0 0 1 9.58-2.32l.17.06a10.58 10.58 0 0 1 2.47 1.12l.62-1.76a7.06 7.06 0 0 1 -.84-6.29zm-10.8 5.28c-.76 2.7-2.92 4.35-4.91 3.75s-2.94-3.17-2.17-5.86 2.88-4.36 4.88-3.76 3 3.17 2.2 5.87zm3.93-.6c-2.48-.74-3.71-4.11-2.74-7.52s3.77-5.59 6.25-4.85 3.71 4.11 2.74 7.53-3.77 5.58-6.25 4.84z" fill="#fbbe0a"/><path d="m18.13 31.87c2.48.74 5.28-1.43 6.25-4.84s-.26-6.79-2.74-7.53-5.28 1.43-6.25 4.85.26 6.78 2.74 7.52z" fill="#343434"/><path d="m29.76 41.86a2.19 2.19 0 0 1 -.13-.42 9.5 9.5 0 0 0 -6.84-7.32l-.17-.06a9.06 9.06 0 0 0 -9.62 2.32 1.54 1.54 0 0 1 -.29.23 4 4 0 0 0 -.41.31 8.51 8.51 0 0 0 -2.61 4.28 4.7 4.7 0 0 0 .83 4.25 2.81 2.81 0 0 0 1.34.9 6.54 6.54 0 0 0 3.57-.35 16.09 16.09 0 0 1 2.66-.59 5 5 0 0 1 1.12.24 6.62 6.62 0 0 1 1.35.53 16 16 0 0 1 1.84 2 6.33 6.33 0 0 0 2.74 2.32 2.7 2.7 0 0 0 1.44 0c2.72-.67 4.23-4.27 3.35-8a5.18 5.18 0 0 0 -.17-.64z" fill="#343434"/><path d="m27.69 34.72c2.48.74 5.28-1.43 6.25-4.85s-.26-6.78-2.74-7.52-5.28 1.43-6.2 4.84.21 6.81 2.69 7.53z" fill="#343434"/><path d="m36 33.74c-2-.59-4.14 1.06-4.9 3.76s.19 5.27 2.18 5.86 4.14-1 4.9-3.75-.18-5.27-2.18-5.87z" fill="#343434"/><path d="m14.2 32.47c.8-2.7-.2-5.27-2.2-5.87s-4.14 1.06-4.9 3.76.19 5.27 2.17 5.86 4.17-1.05 4.93-3.75z" fill="#343434"/></svg>